<?xml version="1.0" standalone="no"?>
<!DOCTYPE svg PUBLIC "-//W3C//DTD SVG 20010904//EN"
 "http://www.w3.org/TR/2001/REC-SVG-20010904/DTD/svg10.dtd">
<svg version="1.0" xmlns="http://www.w3.org/2000/svg"
 width="32.000000pt" height="37.000000pt" viewBox="0 0 32.000000 37.000000"
 preserveAspectRatio="xMidYMid meet">

<g transform="translate(0.000000,37.000000) scale(0.100000,-0.100000)"
fill="#000000" stroke="none">
<path d="M155 279 c4 -6 1 -9 -6 -8 -8 2 -24 -2 -36 -9 -18 -10 -20 -19 -17
-54 5 -53 -3 -79 -24 -76 -19 4 -42 -36 -42 -75 0 -47 37 -30 54 25 3 11 11
15 20 12 12 -5 13 -11 6 -25 -16 -29 -2 -69 24 -69 19 0 22 5 19 33 -2 17 0
37 4 44 11 16 63 28 63 14 0 -6 -4 -11 -10 -11 -5 0 -9 -8 -8 -17 3 -37 -3
-52 -19 -56 -14 -4 -13 -5 4 -6 13 -1 27 8 34 20 l11 21 22 -21 c21 -20 24
-20 36 -6 11 14 11 23 -2 58 -13 36 -19 42 -41 39 -24 -2 -25 0 -25 48 -1 27
3 52 9 55 5 4 9 13 9 21 0 8 -4 12 -10 9 -5 -3 -10 -1 -10 6 0 7 -3 10 -6 6
-3 -3 -14 3 -25 14 -20 20 -45 26 -34 8z m-30 -49 c-4 -6 5 -5 20 2 22 10 28
9 43 -6 16 -17 16 -18 -4 -8 -16 9 -21 8 -21 -3 0 -8 5 -13 11 -12 5 1 11 -11
12 -28 3 -28 -9 -45 -31 -45 -5 0 -3 5 5 10 13 8 12 10 -2 10 -11 0 -18 -8
-18 -19 0 -11 -5 -23 -11 -27 -8 -5 -10 1 -7 20 3 14 1 29 -3 32 -13 8 -11 84
2 84 5 0 7 -5 4 -10z"/>
<path d="M262 259 c-17 -27 -15 -46 3 -23 14 18 15 17 9 -11 -3 -16 -8 -38
-11 -48 -5 -18 12 -47 28 -47 5 0 5 10 0 22 -4 12 -4 38 0 57 5 23 4 40 -5 52
-11 17 -13 17 -24 -2z"/>
</g>
</svg>
